<svg width="222" height="204" viewBox="0 0 222 204" fill="none" xmlns="http://www.w3.org/2000/svg">
<path opacity="0.1" d="M19.6258 6.73572C21.2149 6.73572 22.5032 5.28032 22.5032 3.48499C22.5032 1.68966 21.2149 0.234253 19.6258 0.234253C18.0367 0.234253 16.7484 1.68966 16.7484 3.48499C16.7484 5.28032 18.0367 6.73572 19.6258 6.73572Z" fill="#3B4C68"/>
<path opacity="0.1" d="M44.5629 6.73572C46.152 6.73572 47.4402 5.28032 47.4402 3.48499C47.4402 1.68966 46.152 0.234253 44.5629 0.234253C42.9738 0.234253 41.6855 1.68966 41.6855 3.48499C41.6855 5.28032 42.9738 6.73572 44.5629 6.73572Z" fill="#3B4C68"/>
<path opacity="0.1" d="M69.5 6.73572C71.0891 6.73572 72.3773 5.28032 72.3773 3.48499C72.3773 1.68966 71.0891 0.234253 69.5 0.234253C67.9109 0.234253 66.6227 1.68966 66.6227 3.48499C66.6227 5.28032 67.9109 6.73572 69.5 6.73572Z" fill="#3B4C68"/>
<path opacity="0.1" d="M94.4371 6.73572C96.0262 6.73572 97.3144 5.28032 97.3144 3.48499C97.3144 1.68966 96.0262 0.234253 94.4371 0.234253C92.848 0.234253 91.5598 1.68966 91.5598 3.48499C91.5598 5.28032 92.848 6.73572 94.4371 6.73572Z" fill="#3B4C68"/>
<path opacity="0.1" d="M119.374 6.73572C120.963 6.73572 122.252 5.28032 122.252 3.48499C122.252 1.68966 120.963 0.234253 119.374 0.234253C117.785 0.234253 116.497 1.68966 116.497 3.48499C116.497 5.28032 117.785 6.73572 119.374 6.73572Z" fill="#3B4C68"/>
<path opacity="0.1" d="M144.311 6.73572C145.9 6.73572 147.189 5.28032 147.189 3.48499C147.189 1.68966 145.9 0.234253 144.311 0.234253C142.722 0.234253 141.434 1.68966 141.434 3.48499C141.434 5.28032 142.722 6.73572 144.311 6.73572Z" fill="#3B4C68"/>
<path opacity="0.1" d="M169.248 6.73572C170.838 6.73572 172.126 5.28032 172.126 3.48499C172.126 1.68966 170.838 0.234253 169.248 0.234253C167.659 0.234253 166.371 1.68966 166.371 3.48499C166.371 5.28032 167.659 6.73572 169.248 6.73572Z" fill="#3B4C68"/>
<path opacity="0.1" d="M194.186 6.73572C195.775 6.73572 197.063 5.28032 197.063 3.48499C197.063 1.68966 195.775 0.234253 194.186 0.234253C192.596 0.234253 191.308 1.68966 191.308 3.48499C191.308 5.28032 192.596 6.73572 194.186 6.73572Z" fill="#3B4C68"/>
<path opacity="0.1" d="M219.123 6.73572C220.712 6.73572 222 5.28032 222 3.48499C222 1.68966 220.712 0.234253 219.123 0.234253C217.534 0.234253 216.245 1.68966 216.245 3.48499C216.245 5.28032 217.534 6.73572 219.123 6.73572Z" fill="#3B4C68"/>
<path opacity="0.1" d="M19.6258 34.9143C21.2149 34.9143 22.5032 33.4585 22.5032 31.6628C22.5032 29.867 21.2149 28.4113 19.6258 28.4113C18.0367 28.4113 16.7484 29.867 16.7484 31.6628C16.7484 33.4585 18.0367 34.9143 19.6258 34.9143Z" fill="#3B4C68"/>
<path opacity="0.1" d="M44.5629 34.9143C46.152 34.9143 47.4402 33.4585 47.4402 31.6628C47.4402 29.867 46.152 28.4113 44.5629 28.4113C42.9738 28.4113 41.6855 29.867 41.6855 31.6628C41.6855 33.4585 42.9738 34.9143 44.5629 34.9143Z" fill="#3B4C68"/>
<path opacity="0.1" d="M69.5 34.9143C71.0891 34.9143 72.3773 33.4585 72.3773 31.6628C72.3773 29.867 71.0891 28.4113 69.5 28.4113C67.9109 28.4113 66.6227 29.867 66.6227 31.6628C66.6227 33.4585 67.9109 34.9143 69.5 34.9143Z" fill="#3B4C68"/>
<path opacity="0.1" d="M94.4371 34.9143C96.0262 34.9143 97.3145 33.4585 97.3145 31.6628C97.3145 29.867 96.0262 28.4113 94.4371 28.4113C92.848 28.4113 91.5598 29.867 91.5598 31.6628C91.5598 33.4585 92.848 34.9143 94.4371 34.9143Z" fill="#3B4C68"/>
<path opacity="0.1" d="M119.374 34.9143C120.963 34.9143 122.252 33.4585 122.252 31.6628C122.252 29.867 120.963 28.4113 119.374 28.4113C117.785 28.4113 116.497 29.867 116.497 31.6628C116.497 33.4585 117.785 34.9143 119.374 34.9143Z" fill="#3B4C68"/>
<path opacity="0.1" d="M144.311 34.9143C145.9 34.9143 147.189 33.4585 147.189 31.6628C147.189 29.867 145.9 28.4113 144.311 28.4113C142.722 28.4113 141.434 29.867 141.434 31.6628C141.434 33.4585 142.722 34.9143 144.311 34.9143Z" fill="#3B4C68"/>
<path opacity="0.1" d="M169.248 34.9143C170.838 34.9143 172.126 33.4585 172.126 31.6628C172.126 29.867 170.838 28.4113 169.248 28.4113C167.659 28.4113 166.371 29.867 166.371 31.6628C166.371 33.4585 167.659 34.9143 169.248 34.9143Z" fill="#3B4C68"/>
<path opacity="0.1" d="M194.186 34.9143C195.775 34.9143 197.063 33.4585 197.063 31.6628C197.063 29.867 195.775 28.4113 194.186 28.4113C192.596 28.4113 191.308 29.867 191.308 31.6628C191.308 33.4585 192.596 34.9143 194.186 34.9143Z" fill="#3B4C68"/>
<path opacity="0.1" d="M219.123 34.9143C220.712 34.9143 222 33.4585 222 31.6628C222 29.867 220.712 28.4113 219.123 28.4113C217.534 28.4113 216.245 29.867 216.245 31.6628C216.245 33.4585 217.534 34.9143 219.123 34.9143Z" fill="#3B4C68"/>
<path opacity="0.1" d="M19.6258 63.0911C21.2149 63.0911 22.5032 61.6357 22.5032 59.8405C22.5032 58.0452 21.2149 56.5898 19.6258 56.5898C18.0367 56.5898 16.7484 58.0452 16.7484 59.8405C16.7484 61.6357 18.0367 63.0911 19.6258 63.0911Z" fill="#3B4C68"/>
<path opacity="0.1" d="M44.5629 63.0911C46.152 63.0911 47.4402 61.6357 47.4402 59.8405C47.4402 58.0452 46.152 56.5898 44.5629 56.5898C42.9738 56.5898 41.6855 58.0452 41.6855 59.8405C41.6855 61.6357 42.9738 63.0911 44.5629 63.0911Z" fill="#3B4C68"/>
<path opacity="0.1" d="M69.5 63.0911C71.0891 63.0911 72.3773 61.6357 72.3773 59.8405C72.3773 58.0452 71.0891 56.5898 69.5 56.5898C67.9109 56.5898 66.6227 58.0452 66.6227 59.8405C66.6227 61.6357 67.9109 63.0911 69.5 63.0911Z" fill="#3B4C68"/>
<path opacity="0.1" d="M94.4371 63.0911C96.0262 63.0911 97.3145 61.6357 97.3145 59.8405C97.3145 58.0452 96.0262 56.5898 94.4371 56.5898C92.848 56.5898 91.5598 58.0452 91.5598 59.8405C91.5598 61.6357 92.848 63.0911 94.4371 63.0911Z" fill="#3B4C68"/>
<path opacity="0.1" d="M119.374 63.0911C120.963 63.0911 122.252 61.6357 122.252 59.8405C122.252 58.0452 120.963 56.5898 119.374 56.5898C117.785 56.5898 116.497 58.0452 116.497 59.8405C116.497 61.6357 117.785 63.0911 119.374 63.0911Z" fill="#3B4C68"/>
<path opacity="0.1" d="M144.311 63.0911C145.9 63.0911 147.189 61.6357 147.189 59.8405C147.189 58.0452 145.9 56.5898 144.311 56.5898C142.722 56.5898 141.434 58.0452 141.434 59.8405C141.434 61.6357 142.722 63.0911 144.311 63.0911Z" fill="#3B4C68"/>
<path opacity="0.1" d="M169.248 63.0911C170.838 63.0911 172.126 61.6357 172.126 59.8405C172.126 58.0452 170.838 56.5898 169.248 56.5898C167.659 56.5898 166.371 58.0452 166.371 59.8405C166.371 61.6357 167.659 63.0911 169.248 63.0911Z" fill="#3B4C68"/>
<path opacity="0.1" d="M194.186 63.0911C195.775 63.0911 197.063 61.6357 197.063 59.8405C197.063 58.0452 195.775 56.5898 194.186 56.5898C192.596 56.5898 191.308 58.0452 191.308 59.8405C191.308 61.6357 192.596 63.0911 194.186 63.0911Z" fill="#3B4C68"/>
<path opacity="0.1" d="M219.123 63.0911C220.712 63.0911 222 61.6357 222 59.8405C222 58.0452 220.712 56.5898 219.123 56.5898C217.534 56.5898 216.245 58.0452 216.245 59.8405C216.245 61.6357 217.534 63.0911 219.123 63.0911Z" fill="#3B4C68"/>
<path opacity="0.1" d="M19.6258 91.2692C21.2149 91.2692 22.5032 89.8136 22.5032 88.018C22.5032 86.2224 21.2149 84.7668 19.6258 84.7668C18.0367 84.7668 16.7484 86.2224 16.7484 88.018C16.7484 89.8136 18.0367 91.2692 19.6258 91.2692Z" fill="#3B4C68"/>
<path opacity="0.1" d="M44.5629 91.2692C46.152 91.2692 47.4402 89.8136 47.4402 88.018C47.4402 86.2224 46.152 84.7668 44.5629 84.7668C42.9738 84.7668 41.6855 86.2224 41.6855 88.018C41.6855 89.8136 42.9738 91.2692 44.5629 91.2692Z" fill="#3B4C68"/>
<path opacity="0.1" d="M69.5 91.2692C71.0891 91.2692 72.3773 89.8136 72.3773 88.018C72.3773 86.2224 71.0891 84.7668 69.5 84.7668C67.9109 84.7668 66.6227 86.2224 66.6227 88.018C66.6227 89.8136 67.9109 91.2692 69.5 91.2692Z" fill="#3B4C68"/>
<path opacity="0.1" d="M94.4371 91.2692C96.0262 91.2692 97.3145 89.8136 97.3145 88.018C97.3145 86.2224 96.0262 84.7668 94.4371 84.7668C92.848 84.7668 91.5598 86.2224 91.5598 88.018C91.5598 89.8136 92.848 91.2692 94.4371 91.2692Z" fill="#3B4C68"/>
<path opacity="0.1" d="M119.374 91.2692C120.963 91.2692 122.252 89.8136 122.252 88.018C122.252 86.2224 120.963 84.7668 119.374 84.7668C117.785 84.7668 116.497 86.2224 116.497 88.018C116.497 89.8136 117.785 91.2692 119.374 91.2692Z" fill="#3B4C68"/>
<path opacity="0.1" d="M144.311 91.2692C145.9 91.2692 147.189 89.8136 147.189 88.018C147.189 86.2224 145.9 84.7668 144.311 84.7668C142.722 84.7668 141.434 86.2224 141.434 88.018C141.434 89.8136 142.722 91.2692 144.311 91.2692Z" fill="#3B4C68"/>
<path opacity="0.1" d="M169.248 91.2692C170.838 91.2692 172.126 89.8136 172.126 88.018C172.126 86.2224 170.838 84.7668 169.248 84.7668C167.659 84.7668 166.371 86.2224 166.371 88.018C166.371 89.8136 167.659 91.2692 169.248 91.2692Z" fill="#3B4C68"/>
<path opacity="0.1" d="M194.186 91.2692C195.775 91.2692 197.063 89.8136 197.063 88.018C197.063 86.2224 195.775 84.7668 194.186 84.7668C192.596 84.7668 191.308 86.2224 191.308 88.018C191.308 89.8136 192.596 91.2692 194.186 91.2692Z" fill="#3B4C68"/>
<path opacity="0.1" d="M219.123 91.2692C220.712 91.2692 222 89.8136 222 88.018C222 86.2224 220.712 84.7668 219.123 84.7668C217.534 84.7668 216.245 86.2224 216.245 88.018C216.245 89.8136 217.534 91.2692 219.123 91.2692Z" fill="#3B4C68"/>
<path opacity="0.1" d="M19.6258 119.447C21.2149 119.447 22.5032 117.991 22.5032 116.196C22.5032 114.4 21.2149 112.944 19.6258 112.944C18.0367 112.944 16.7484 114.4 16.7484 116.196C16.7484 117.991 18.0367 119.447 19.6258 119.447Z" fill="#3B4C68"/>
<path opacity="0.1" d="M44.5629 119.447C46.152 119.447 47.4402 117.991 47.4402 116.196C47.4402 114.4 46.152 112.944 44.5629 112.944C42.9738 112.944 41.6855 114.4 41.6855 116.196C41.6855 117.991 42.9738 119.447 44.5629 119.447Z" fill="#3B4C68"/>
<path opacity="0.1" d="M69.5 119.447C71.0891 119.447 72.3773 117.991 72.3773 116.196C72.3773 114.4 71.0891 112.944 69.5 112.944C67.9109 112.944 66.6227 114.4 66.6227 116.196C66.6227 117.991 67.9109 119.447 69.5 119.447Z" fill="#3B4C68"/>
<path opacity="0.1" d="M94.4371 119.447C96.0262 119.447 97.3145 117.991 97.3145 116.196C97.3145 114.4 96.0262 112.944 94.4371 112.944C92.848 112.944 91.5598 114.4 91.5598 116.196C91.5598 117.991 92.848 119.447 94.4371 119.447Z" fill="#3B4C68"/>
<path opacity="0.1" d="M119.374 119.447C120.963 119.447 122.252 117.991 122.252 116.196C122.252 114.4 120.963 112.944 119.374 112.944C117.785 112.944 116.497 114.4 116.497 116.196C116.497 117.991 117.785 119.447 119.374 119.447Z" fill="#3B4C68"/>
<path opacity="0.1" d="M144.311 119.447C145.9 119.447 147.189 117.991 147.189 116.196C147.189 114.4 145.9 112.944 144.311 112.944C142.722 112.944 141.434 114.4 141.434 116.196C141.434 117.991 142.722 119.447 144.311 119.447Z" fill="#3B4C68"/>
<path opacity="0.1" d="M169.248 119.447C170.838 119.447 172.126 117.991 172.126 116.196C172.126 114.4 170.838 112.944 169.248 112.944C167.659 112.944 166.371 114.4 166.371 116.196C166.371 117.991 167.659 119.447 169.248 119.447Z" fill="#3B4C68"/>
<path opacity="0.1" d="M194.186 119.447C195.775 119.447 197.063 117.991 197.063 116.196C197.063 114.4 195.775 112.944 194.186 112.944C192.596 112.944 191.308 114.4 191.308 116.196C191.308 117.991 192.596 119.447 194.186 119.447Z" fill="#3B4C68"/>
<path opacity="0.1" d="M219.123 119.447C220.712 119.447 222 117.991 222 116.196C222 114.4 220.712 112.944 219.123 112.944C217.534 112.944 216.245 114.4 216.245 116.196C216.245 117.991 217.534 119.447 219.123 119.447Z" fill="#3B4C68"/>
<path opacity="0.1" d="M19.6258 147.625C21.2149 147.625 22.5032 146.17 22.5032 144.374C22.5032 142.578 21.2149 141.123 19.6258 141.123C18.0367 141.123 16.7484 142.578 16.7484 144.374C16.7484 146.17 18.0367 147.625 19.6258 147.625Z" fill="#3B4C68"/>
<path opacity="0.1" d="M44.5629 147.625C46.152 147.625 47.4402 146.17 47.4402 144.374C47.4402 142.578 46.152 141.123 44.5629 141.123C42.9738 141.123 41.6855 142.578 41.6855 144.374C41.6855 146.17 42.9738 147.625 44.5629 147.625Z" fill="#3B4C68"/>
<path opacity="0.1" d="M69.5 147.625C71.0891 147.625 72.3773 146.17 72.3773 144.374C72.3773 142.578 71.0891 141.123 69.5 141.123C67.9109 141.123 66.6227 142.578 66.6227 144.374C66.6227 146.17 67.9109 147.625 69.5 147.625Z" fill="#3B4C68"/>
<path opacity="0.1" d="M94.4371 147.625C96.0262 147.625 97.3145 146.17 97.3145 144.374C97.3145 142.578 96.0262 141.123 94.4371 141.123C92.848 141.123 91.5598 142.578 91.5598 144.374C91.5598 146.17 92.848 147.625 94.4371 147.625Z" fill="#3B4C68"/>
<path opacity="0.1" d="M119.374 147.625C120.963 147.625 122.252 146.17 122.252 144.374C122.252 142.578 120.963 141.123 119.374 141.123C117.785 141.123 116.497 142.578 116.497 144.374C116.497 146.17 117.785 147.625 119.374 147.625Z" fill="#3B4C68"/>
<path opacity="0.1" d="M144.311 147.625C145.9 147.625 147.189 146.17 147.189 144.374C147.189 142.578 145.9 141.123 144.311 141.123C142.722 141.123 141.434 142.578 141.434 144.374C141.434 146.17 142.722 147.625 144.311 147.625Z" fill="#3B4C68"/>
<path opacity="0.1" d="M169.248 147.625C170.838 147.625 172.126 146.17 172.126 144.374C172.126 142.578 170.838 141.123 169.248 141.123C167.659 141.123 166.371 142.578 166.371 144.374C166.371 146.17 167.659 147.625 169.248 147.625Z" fill="#3B4C68"/>
<path opacity="0.1" d="M194.186 147.625C195.775 147.625 197.063 146.17 197.063 144.374C197.063 142.578 195.775 141.123 194.186 141.123C192.596 141.123 191.308 142.578 191.308 144.374C191.308 146.17 192.596 147.625 194.186 147.625Z" fill="#3B4C68"/>
<path opacity="0.1" d="M219.123 147.625C220.712 147.625 222 146.17 222 144.374C222 142.578 220.712 141.123 219.123 141.123C217.534 141.123 216.245 142.578 216.245 144.374C216.245 146.17 217.534 147.625 219.123 147.625Z" fill="#3B4C68"/>
<path opacity="0.1" d="M19.6258 175.802C21.2149 175.802 22.5032 174.347 22.5032 172.551C22.5032 170.755 21.2149 169.3 19.6258 169.3C18.0367 169.3 16.7484 170.755 16.7484 172.551C16.7484 174.347 18.0367 175.802 19.6258 175.802Z" fill="#3B4C68"/>
<path opacity="0.1" d="M44.5629 175.802C46.152 175.802 47.4402 174.347 47.4402 172.551C47.4402 170.755 46.152 169.3 44.5629 169.3C42.9738 169.3 41.6855 170.755 41.6855 172.551C41.6855 174.347 42.9738 175.802 44.5629 175.802Z" fill="#3B4C68"/>
<path opacity="0.1" d="M69.5 175.802C71.0891 175.802 72.3773 174.347 72.3773 172.551C72.3773 170.755 71.0891 169.3 69.5 169.3C67.9109 169.3 66.6227 170.755 66.6227 172.551C66.6227 174.347 67.9109 175.802 69.5 175.802Z" fill="#3B4C68"/>
<path opacity="0.1" d="M94.4371 175.802C96.0262 175.802 97.3145 174.347 97.3145 172.551C97.3145 170.755 96.0262 169.3 94.4371 169.3C92.848 169.3 91.5598 170.755 91.5598 172.551C91.5598 174.347 92.848 175.802 94.4371 175.802Z" fill="#3B4C68"/>
<path opacity="0.1" d="M119.374 175.802C120.963 175.802 122.252 174.347 122.252 172.551C122.252 170.755 120.963 169.3 119.374 169.3C117.785 169.3 116.497 170.755 116.497 172.551C116.497 174.347 117.785 175.802 119.374 175.802Z" fill="#3B4C68"/>
<path opacity="0.1" d="M144.311 175.802C145.9 175.802 147.189 174.347 147.189 172.551C147.189 170.755 145.9 169.3 144.311 169.3C142.722 169.3 141.434 170.755 141.434 172.551C141.434 174.347 142.722 175.802 144.311 175.802Z" fill="#3B4C68"/>
<path opacity="0.1" d="M169.248 175.802C170.838 175.802 172.126 174.347 172.126 172.551C172.126 170.755 170.838 169.3 169.248 169.3C167.659 169.3 166.371 170.755 166.371 172.551C166.371 174.347 167.659 175.802 169.248 175.802Z" fill="#3B4C68"/>
<path opacity="0.1" d="M194.186 175.802C195.775 175.802 197.063 174.347 197.063 172.551C197.063 170.755 195.775 169.3 194.186 169.3C192.596 169.3 191.308 170.755 191.308 172.551C191.308 174.347 192.596 175.802 194.186 175.802Z" fill="#3B4C68"/>
<path opacity="0.1" d="M219.123 175.802C220.712 175.802 222 174.347 222 172.551C222 170.755 220.712 169.3 219.123 169.3C217.534 169.3 216.245 170.755 216.245 172.551C216.245 174.347 217.534 175.802 219.123 175.802Z" fill="#3B4C68"/>
<path opacity="0.1" d="M19.6258 203.98C21.2149 203.98 22.5032 202.524 22.5032 200.729C22.5032 198.933 21.2149 197.477 19.6258 197.477C18.0367 197.477 16.7484 198.933 16.7484 200.729C16.7484 202.524 18.0367 203.98 19.6258 203.98Z" fill="#3B4C68"/>
<path opacity="0.1" d="M44.5629 203.98C46.152 203.98 47.4402 202.524 47.4402 200.729C47.4402 198.933 46.152 197.477 44.5629 197.477C42.9738 197.477 41.6855 198.933 41.6855 200.729C41.6855 202.524 42.9738 203.98 44.5629 203.98Z" fill="#3B4C68"/>
<path opacity="0.1" d="M69.5 203.98C71.0891 203.98 72.3773 202.524 72.3773 200.729C72.3773 198.933 71.0891 197.477 69.5 197.477C67.9109 197.477 66.6227 198.933 66.6227 200.729C66.6227 202.524 67.9109 203.98 69.5 203.98Z" fill="#3B4C68"/>
<path opacity="0.1" d="M94.4371 203.98C96.0262 203.98 97.3145 202.524 97.3145 200.729C97.3145 198.933 96.0262 197.477 94.4371 197.477C92.848 197.477 91.5598 198.933 91.5598 200.729C91.5598 202.524 92.848 203.98 94.4371 203.98Z" fill="#3B4C68"/>
<path opacity="0.1" d="M119.374 203.98C120.963 203.98 122.252 202.524 122.252 200.729C122.252 198.933 120.963 197.477 119.374 197.477C117.785 197.477 116.497 198.933 116.497 200.729C116.497 202.524 117.785 203.98 119.374 203.98Z" fill="#3B4C68"/>
<path opacity="0.1" d="M144.311 203.98C145.9 203.98 147.189 202.524 147.189 200.729C147.189 198.933 145.9 197.477 144.311 197.477C142.722 197.477 141.434 198.933 141.434 200.729C141.434 202.524 142.722 203.98 144.311 203.98Z" fill="#3B4C68"/>
<path opacity="0.1" d="M169.248 203.98C170.838 203.98 172.126 202.524 172.126 200.729C172.126 198.933 170.838 197.477 169.248 197.477C167.659 197.477 166.371 198.933 166.371 200.729C166.371 202.524 167.659 203.98 169.248 203.98Z" fill="#3B4C68"/>
<path opacity="0.1" d="M194.186 203.98C195.775 203.98 197.063 202.524 197.063 200.729C197.063 198.933 195.775 197.477 194.186 197.477C192.596 197.477 191.308 198.933 191.308 200.729C191.308 202.524 192.596 203.98 194.186 203.98Z" fill="#3B4C68"/>
<path opacity="0.1" d="M219.123 203.98C220.712 203.98 222 202.524 222 200.729C222 198.933 220.712 197.477 219.123 197.477C217.534 197.477 216.245 198.933 216.245 200.729C216.245 202.524 217.534 203.98 219.123 203.98Z" fill="#3B4C68"/>
</svg>
